<?xml version="1.0" encoding="UTF-8"?>
<svg width="660" height="267" id="Layer_1" data-name="Layer 1" xmlns="http://www.w3.org/2000/svg" xmlns:xlink="http://www.w3.org/1999/xlink" viewBox="0 0 660 267">
  <defs>
    <style>
      .cls-1 {
        fill: #afaeae;
      }

      .cls-2 {
        fill: #2e6d6a;
      }

      .cls-3 {
        fill: #87198b;
      }

      .cls-4 {
        fill: #1e9691;
      }

      .cls-5 {
        fill: #010101;
      }

      .cls-6 {
        fill: #46c9cc;
        filter: url(#outer-glow-1);
        font-family: Broadacre-Hairline3, Broadacre;
        font-size: 157.96px;
        font-weight: 100;
      }

      .cls-7 {
        fill: #2cc2c4;
      }

      .cls-8 {
        fill: #47444a;
      }

      .cls-9 {
        fill: #b6babe;
      }

      .cls-10 {
        fill: #909192;
      }

      .cls-11 {
        fill: #2cbdbf;
      }

      .cls-12 {
        fill: #4c4d50;
      }

      .cls-13 {
        fill: #949996;
      }

      .cls-14 {
        letter-spacing: 0em;
      }

      .cls-15 {
        fill: #fdfefd;
      }

      .cls-16 {
        fill: #a1139e;
      }

      .cls-17 {
        fill: #575863;
      }

      .cls-18 {
        fill: #5d656a;
      }

      .cls-19 {
        fill: #229c98;
      }

      .cls-20 {
        fill: #b9bbbe;
      }

      .cls-21 {
        fill: #28b0b4;
      }

      .cls-22 {
        fill: #4a4240;
      }

      .cls-23 {
        fill: #0a5e5f;
      }

      .cls-24 {
        fill: #030303;
      }

      .cls-25 {
        fill: #3c3e3a;
      }

      .cls-26 {
        fill: #222628;
      }

      .cls-27 {
        fill: #050605;
      }

      .cls-28 {
        fill: #105157;
      }

      .cls-29 {
        fill: #8e9a9f;
      }

      .cls-30 {
        fill: #c1c5c9;
      }

      .cls-31 {
        letter-spacing: -.03em;
      }

      .cls-32 {
        fill: #1fa39d;
      }

      .cls-33 {
        fill: #63625c;
      }

      .cls-34 {
        fill: #30c0c0;
      }

      .cls-35 {
        fill: #09565c;
      }

      .cls-36 {
        fill: #fafafa;
      }

      .cls-37 {
        fill: #b4b0ba;
      }

      .cls-38 {
        fill: #209c9c;
      }

      .cls-39 {
        fill: #383939;
      }

      .cls-40 {
        fill: #0c5b61;
      }
    </style>
    <filter id="outer-glow-1" filterUnits="userSpaceOnUse">
      <feOffset dx="0" dy="0"/>
      <feGaussianBlur result="blur" stdDeviation="5"/>
      <feFlood flood-color="#1dcace" flood-opacity="1"/>
      <feComposite in2="blur" operator="in"/>
      <feComposite in="SourceGraphic"/>
    </filter>
  </defs>
  <g id="Generative_Object" data-name="Generative Object">
    <g>
      <path class="cls-15" d="M351.2,93.5l13.32-5.66c6.46-13.17,14.48-25.37,23.45-37.08,2.3-3,5.51-7.95,3.89-9.99-1.51-1.91-6.96.52-10.53,2.23-7.12,3.41-13.59,7.77-19.48,13.03-3.91,3.5-6.8,7.52-9.38,12.02-1.97,3.43-3.01,6.98-2.92,11.03-1.73.22-2.69-.98-2.66-2.55.17-9.41,8.11-19.16,15.31-25.22,7.44-6.26,15.91-10.97,25.03-14.33,5.71-2.1,14.2-3.72,17.57.82,1.62,2.18,1.34,5.04.61,7.53l-4.28,9.55-14.87,27.59,42.76-9.93,9.72-18.11,13.08-21.62,3.7-4.64c.67-.84,1.35-1.19,2.3-1.25.71-.05,2.22.59,2.28,1.5l-4.2,6.7c-7.89,11.65-14.99,23.57-21.15,36.41l6.23-.77c.8-.1,1.89.48,1.67,1.31l-9.46,1.87c-7.77,14.57-10.96,30.29-12.98,46.68-.11.9-1.74.76-2.33.52-.93-.38-1.32-1.39-1.24-2.63.81-11.62,3.24-22.84,7.09-33.81l3.99-9.57-26.9,6.84-17.11,4.26c-6.61,12.63-12.27,26.11-14.41,40.2-.22,1.44-1.49,1.94-2.76,1.78-8.36-1.04-10.49-8.96-9.27-17.01,1.04-6.88,3.07-13.35,5.94-19.85l-10.92,4.37c-.71.29-1.57-.02-1.81-.53-.26-.56.05-1.36.74-1.65l-.02-.04Z"/>
      <path class="cls-15" d="M37.9,157.99l-1.87.31c-.18-.07-.57,0-.77,0-1.47-.42-3.02-.66-4.66-.71l-.22-.37c-.31,0-.32-.1-.04-.29-.44-.13-.89-.34-1.15-.74-.48-.74-2-3.79-1.12-4.18,10.33-3.32,19.31-9.72,25.67-18.7,10.08-14.22-10.07-27.08-21.81-34.54-2.98-1.9-5.64-3.89-7.82-6.66-2.61-3.32-2.84-7.77-.34-11.23,1.85-2.55,4.21-4.47,6.99-6.05,8.82-5.02,20.95-9.33,31.04-8.52,3.34.27,6.69,1.8,8.09,4.96,3.04,6.88-4.69,16.28-10.32,21.12-1.01.87-2.35,1.31-3.5.4,5.46-4.31,13.55-15.97,10.45-20.35-2.09-2.94-7.78-2.27-12.06-1.38-7.01,1.46-24.96,7.88-23.72,13.86.2.96.91,2.24,2.06,2.88l15.27,8.56c14.31,8.02,29.35,24.77,20.52,40.97-3.19,5.85-7.9,10.4-13.64,13.82-5.41,3.22-11.04,5.59-17.05,6.83h0Z"/>
      <path class="cls-36" d="M13.59,149.66c1.22,1.46,2.79,2.56,4.71,3.31l4.41.08c-.49,2.11-2.37,3.81-4.58,2.35-2.46.11-4.85-.11-7.16-.67-.44-.28-1.02-.47-1.4-1.04-1.92-2.87-1.71-6.22.1-9.13,3.91-6.26,16.58-13.17,23.86-16.24l12.71-5.37c1.06-.45,2.36-.3,2.96.54-10.73,5.54-19.74,8.08-29.36,15.7-3.28,2.6-7.3,7.16-6.25,10.48h0Z"/>
      <path class="cls-4" d="M147.6,124.35c.8,2.87,3.22,4.71,6.5,4.92.51,1.53,1.09,2.98,1.25,4.47l-15.48-11.67,2.15-2.18.77-.31c1.55.92,4.13,3.17,4.8,4.77h0Z"/>
      <path class="cls-17" d="M135.9,121.01c-1.18,1.54-2.51,3.3-4.3,4.39l-5.58,3.42c-1.25.77-2.48,1.16-3.42,2.53-1.53-.51-2.82-.57-4.22-.26-1.65-2.22-2.99.07-5.07-.49.85-.78.7-1.21.56-1.99-.23-1.29,1.03-2.8.4-3.62.25-.25.33-.78,1.11-.61-.17.56-.25,1.7.24,2.17.41.39,1.17.81,1.89.96l.81.47c.58,1.54,1.99,2.14,4.22,1.81,1.22-1.38,2.93-2.25,5.13-2.6l3.25-1.77,3.84-3.77c.4-.39.74-.63,1.17-.65h-.03Z"/>
      <path class="cls-40" d="M148.31,118.12c-.99,1.86-1.02,4.08-.71,6.23l-5.57-4.46c.31-.32.77-.72,1.05-1l.85-.27,2.2,1.83c-.64-1.68-.7-3.17-.17-4.45l1.5-1.49c.16-.04.33-.06.48-.04.65.1.43,2.98.37,3.65h0Z"/>
      <path class="cls-26" d="M15.42,155.86c2.14.35,4.26.72,6.35,1.12,1.62-.64,4.08-.36,5.61.44l5.89.41c1.04.06,1.45.33,1.23.83l-5.32.31-3.98-.38c-4.19-.4-8.11-1.68-11.95-2.78-.12-.82,2.04-.71,2.17.06h0Z"/>
      <path class="cls-11" d="M143.08,118.89l2.88-2.89,1.21,5.89c-1.75-.76-2.68-2.01-4.09-3h0Z"/>
      <path class="cls-38" d="M148.31,118.12c-.27-.04-.39-.27-.44-.67l-.41-2.94,2.66-2.29c.56.7.46,1.66.04,2.44l-1.85,3.47h0Z"/>
      <path class="cls-22" d="M18.69,152.88l-.39.08c-1.8-.66-4.1-1.38-4.71-3.31,1.5,1.38,3.2,2.43,5.1,3.22h0Z"/>
      <rect class="cls-2" x="63.19" y="74.01" width=".72" height="2.53"/>
      <path class="cls-18" d="M37.9,157.99c-.55.11-1.17.58-1.87.31.46-.49,1.23-.42,1.87-.31Z"/>
      <path class="cls-29" d="M27.23,152.19l1.98,3.97,1.12.78c.04.08.03.2.04.29l-.04.36c-2.11.03-4.14-.46-6.09-1.46-1.25.73-2.39.96-3.4.69l-.13-.91,2.05-2.3c-.15-.4.17-.66.95-.81l3.51-.6h0Z"/>
      <path class="cls-9" d="M23.72,152.79c-.62,1.58-1.74,2.78-2.86,4.02-1.73-.39-3.54-.71-5.44-.95l-2.17-.06c-.83-.24-1.6-.65-2.28-1.08l7.24.13c.58.02,1.48,1.13,2.17.44l2.01-2.01c-1.65-.08-2.8.16-4.1-.31l.39-.08,5.03-.09h.01Z"/>
      <path class="cls-18" d="M30.38,157.23c1.68.04,3.5.07,4.88,1.08-.13.28-.44.34-.75.36,0-.25-.23-.38-.61-.42l-13.06-1.1-5.41-1.28c1.15-.11,2.37-.09,3.59.32l1.85.63c.9.31,1.23-.38,1.96-.95,1.39-1.09,3.66-.1,4.58,1.28l2.99.08h-.02Z"/>
      <path class="cls-30" d="M28.06,152.01c0,.56.07,1.09.37,1.6l1.9,3.32c-.39.04-1.58,0-1.73-.48-.01-2.35-1.99-2.83-1.38-4.26.31-.05.57-.09.83-.18h0Z"/>
      <path class="cls-21" d="M197.08,90.64c-.43.07-.84-.01-1.14-.31.46-.19.82.19,1.14.31Z"/>
      <path class="cls-7" d="M198.5,113.28c-.2,2.13.16,4.18.66,6.25l-2.85,2.63c-.81.48-1.39.45-1.75-.07-1.64-1.83-3.16-3.74-4.57-5.75l.58-.74,6.11-4.32c1.1-.79,1.71-.12,1.82,2Z"/>
      <path class="cls-34" d="M382.29,53.06c-.17.09-.34.16-.52.16-.63,0-.95-5.32-.76-6l.69-.76c2.19-1.15,4.3-2.19,6.97-2.87,0,0-6.38,9.47-6.38,9.47Z"/>
      <path class="cls-19" d="M379.78,47.47l.79-.23c.69,2.3,1.07,5.48.2,7.74l-2.58,3.34-.95-9.53,2.54-1.32h0Z"/>
      <path class="cls-32" d="M194.5,123.26c-.82.53-1.41,1.29-2.57,1.52l-5.25-6.55c.55-.72,1.2-.88,1.75-1.23.81-.43,1.39-.46,1.75-.09l4.56,5.5-.23.86h0Z"/>
      <path class="cls-35" d="M196.31,122.16c-.56.52-1.19.71-1.8,1.11l-4.93-5.95c-.28-.32-.96-.29-1.15-.31l2.14-1.4c0,.51.32.95.73,1.44l3.79,4.55c.39.46.77.61,1.22.56Z"/>
      <path class="cls-23" d="M382.29,53.06l-1.51,1.92-.52-6.68c-.04-.42-.26-.67-.47-.83l1.92-1.01.25,5.87c.02.37.17.61.34.73h-.01Z"/>
      <path class="cls-28" d="M198.5,113.28c-.8-1.02-.88-2.09-1.82-2l2.17-1.81-.35,3.81h0Z"/>
      <path class="cls-3" d="M299.44,106.4c.19.67-1.35,1.27-1.38,1.05-.07-.41.3-1.2.87-1.35.21-.06.45.08.51.29h0Z"/>
      <path class="cls-16" d="M366.78,58.18c.17-.49.18-1.37-.07-1.87.3-.39.51-.81,1.15-1.1-.19,1.17-.46,2.19-1.08,2.97Z"/>
      <path class="cls-15" d="M135.9,121.01c-2.42,2.89-5.17,4.96-8.25,6.19-1.87.8-3.78,1.27-5.72,1.39-1.98.32-3.46-.03-4.43-1.07-1.59,1.12-3.01-.64-2.73-2.39l-.51-.13-5.14,5.1c-3.69,3.66-7.63,6.95-12.32,9.32-3.09,1.56-6.63,2.3-10.05,2.29-8.25-.04-12.35-9.25-10.77-16.27,2.08-9.24,7.47-17.27,15.09-22.78,4.59-3.32,10.15-4.51,15.43-2.49,5.91,2.26,6.66,9.08,4.18,8.45-5.87-1.5-12.48,5-16.49,9.78-3.42,4.07-8.88,11.92-7.84,16.41.46,1.98,2.67,2.82,4.6,2.4,9.29-2.04,19.46-10.63,25.89-17.84,3.24-8.65,8.28-16.03,15.1-22.17,1.65-1.49,3.55-2.59,5.89-2.1,1.62.33,3.98,1.49,4.69,3.36.85,2.26-.15,4.3-1.35,6.15-2.23,3.43-4.5,6.68-5.64,10.66l5.44-4.71c5.42-4.7,17.32-14.2,23.21-15.14,1.76-.28,3.74.46,4.18,2.27s-.42,3.43-1.45,4.8l-7.91,10.53c-1.89,2.51-4.64,6.94-3.7,8.42s6.27-1.07,9.21-2.88l6.55-4.02c1.15-8.04,5.95-14.49,12.86-18.56,4.01-2.36,8.48-3.34,12.92-1.86,3.41,1.14,4.73,4.4,3.35,7.68-2.88,6.84-11.15,10.55-17.26,14.67-1.56,2.13-1.49,6.3-.52,8.64,1.76,4.22,5.98,5.24,9.81,3.38s7.17-4.68,10.49-7.8c-3.75-13.03,4.01-27.27,16.21-32.38,2.58-1.08,5.31-1.36,7.98-.67,2.15.56,3.61,2.25,3.94,4.4.49,3.12-.47,5.91-2.21,8.51-3.74,5.57-8.67,9.81-14.35,13.54-1.3,2.74-1.47,6.02-.23,8.78,1.45,3.24,4.85,4.51,8.18,3.38s6.14-3.24,8.82-5.58l10.07-8.77c1.66-1.44,3.88-2.76,4.97-4.76,4.32-7.89,9.08-15.45,16.09-21.1,3.73-3.01,9.21-2.39,11.64,1.63,1.2,1.99-.02,4.44-1.36,6.04l-11.66,13.98c-1.35,1.62-2.8,3.13-3.24,5.48,3.05-1.47,5.27-3.61,7.7-5.72,8.16-7.08,16.94-15.38,27.01-19.27,1.85-.71,3.71-1.18,5.61-.65,4.63,1.29,2.66,8.04.2,12.61l-6.2,11.5c-1.46,2.71-2.62,6.59-1.09,7.48,3.74,2.17,21.55-14.58,26.55-19.23.54-.5,1.3-.51,1.8-.59.42-.06,1.53.49,1.35,1.1l-7.1,7.09c-4.95,4.94-15.18,13.93-21.12,15.77-2.07.64-4.08.32-5.66-1.05-4.54-3.97.38-14.49,3.59-20.22l4.91-8.77c.3-.53.33-2.25-.33-2.15-2.78.42-5.14,1.91-7.49,3.35-8.03,4.9-14.81,10.97-21.66,17.38l-11.97,11.2c-.99.93-2.31,1.42-3.72.95-2.87-.97-5.04-3.4-5.58-6.39l.11-5.2c-8.37,7.21-17.43,17.62-28.52,18.05-5.28.21-9.88-2.51-12.15-7.08-5.86,5.11-12.26,9.78-19.75,9.85-8.94-.38-13.49-6.37-13.42-15.6l-8.64,5.65c-2.87,1.88-8.17,3.8-10.2,1.72-2.18-2.23-.29-7.04,1.94-9.99l9.5-12.54c.82-1.08,1.56-2.24,1.07-3.74-1.92.35-3.51,1.43-5.18,2.56-7.91,5.36-14.92,11.66-21.67,18.41l-1.54,1.38v-.02Z"/>
      <path class="cls-24" d="M184.02,113.08c1.59-4.84,11.15-14.44,13.27-11.95,1.82,2.14-8.8,9.83-13.27,11.95Z"/>
      <path class="cls-27" d="M215.62,110.19c.28-1.95,1.25-3.57,2.38-5.14l5.92-8.18c.67-.92,1.53-1.66,2.84-1.81.36,1.3-.14,2.6-.89,3.78-2.74,4.28-6.05,8.06-10.25,11.34h0Z"/>
      <path class="cls-20" d="M127.65,127.2c-1.69.92-3.49,1.52-4.85,3.22-1.19-.03-2.66.28-3.61-.25-1.04-.58-1.64-1.67-1.69-2.66,3.33.72,6.81.23,10.15-.32h0Z"/>
      <path class="cls-25" d="M514.82,100.71c-.11,1.01.14,1.98.31,2.95-.63-.44-1.53-1.16-1.38-2.14l.33-1.89.73,1.08h.01Z"/>
      <path class="cls-15" d="M561.16,88.91c-.74.99-1.62,1.9-2.64,2.73.68.33.42,1.06-.77,2.21-.76,2.2-1,4.82-.23,7.18,2.55.33,7.52-3.86,9.33-6l.16-.49c3.34-3.03,6.56-6.12,9.65-9.3l8.59-10.14c.42-.49,1.48-.35,1.68,0,.18.33.2,1.04-.14,1.44l-3.99,4.72-8,8.26c-3.61,4.19-7.05,8.28-11.39,11.76-2.52,2.02-5.5,3.42-8.8,3.34s-5.74-2.24-7.26-4.96c-1.82-3.26-2.05-6.87-1.9-10.42.35-1.24.85-2.5,1.94-3.25-.02-.52.67-1.04.14-2.02-2.22,2.86-5.18,4.64-7.82,7.02l-11.6,10.44c-1.83,1.65-3.99,2.72-6.49,2.9-1.33,1.14-2.99.94-4.4.48-1.51-.96-2.08-2.39-2.41-4.09-.45.5-.69.14-.73-1.08-3.23-6.62-.74-15.95,1.54-23.5-1.26.71-2,1.79-2.78,2.86l-10.04,13.8c-2.11,2.9-4.47,5.38-7.22,7.63-2.05,1.68-4.47,1.81-6.56,0-3.11-2.69-4.53-6.56-4.26-11.15l-9.08,7.9c-6.14,5.34-13.51,10.76-21.71,10.52-6.4-.18-11.59-4.55-12.77-10.78-1.3-6.9.75-13.33,4.9-18.84,2.69-3.57,5.68-6.37,9.75-8.37,3.14-1.55,6.4-2.64,10-2.09,2.73.42,5.62,1.91,6.37,4.73,1.82,6.86-11.61,14.44-17.91,18.07-2.48,2.21-2.23,7.25-.79,9.99,1.74,3.33,5.49,4.15,8.75,2.86,2.99-1.18,5.51-2.95,7.98-5.05l15.23-12.95c1.3-1.63,1.54-3.99,2.44-5.91,3.32-7.06,8.75-12.95,15.67-16.46,7.27-3.68,12.12-1.17,18.49,3.36l4.76-4.39c1.58-1.46,3.7-2.01,5.95-1.46,1.54.38,3.47,1.68,4.2,3.62.5,1.33,0,2.83-.67,4.09l-9.81,18.68-2.67,5.31c-.43.56-1.06.91-1.89,1.06.45.6-.04,1.31-1.47,2.14-.9,1.31-1.45,3.47-.1,4.95,1.79,1.96,6.29-.84,9.17-3.5.67-.62,1.4-1.01,1.83-1.71,2.04-.91,3.88-2.12,5.53-3.64,4.18-3.72,7.73-8.04,11.3-12.48,1.08-6.28,3.01-11.89,5.59-17.65,3.89-8.69,8.42-16.72,13.57-24.96l-21.62,3.86-5.75.95c.51-1.62,1.76-2.64,3.36-2.94l24.86-4.75c1.45-.28,2.36-1.2,3.16-2.34l12.65-18.07c.87-1.24,2.03-2.39,3.24-3.29,3-2.23,7.33-1.54,9.85,1.03,1.84,1.87,2.11,4.29.97,6.58l-5.76,11.66,43.03-6.2c5.58-.8,10.76-1.64,16.4-1.49-1.11,1.34-2.46,1.68-4,1.92l-56.03,8.64c-1.06.16-1.73.64-2.21,1.48l-10.68,18.64c-4.61,8.05-8.65,16.03-12.33,24.53l-5.36,12.37h0Z"/>
      <path class="cls-8" d="M566.86,95.02c-.16-.77.26-1.24.83-1.75l7.25-6.51,1.73-1.53c-.49,1.65-1.87,2.59-3.18,3.72l-2.51,2.16c-1.53,1.32-2.91,2.48-4.12,3.91Z"/>
      <path class="cls-33" d="M536.92,91.41l-2.64,2.82c-.69.74-2.12.47-2.9.82.79-1.29,2.4-1.65,3.71-2.48.6-.38.94-1.42,1.82-1.16h.01Z"/>
      <path class="cls-1" d="M517.23,104.8c-.79-.26-1.41-.65-2.1-1.14-.64-.83-1.44-2.45-.31-2.95l2.41,4.09Z"/>
      <path class="cls-12" d="M557.76,93.85l.77-2.21c.78-1.11,1.52-1.54,2.23-1.28-.42,1.48-1.65,2.66-2.99,3.49h-.01Z"/>
      <path class="cls-13" d="M545.45,89.25c.04-.86-.18-1.79.28-2.71l1.66-.55c.05,1.41-1.04,2.3-1.94,3.25h0Z"/>
      <path class="cls-39" d="M523.48,93.2c-.64,1.84-1.77,1.11-2.98,2.11l1.47-2.14c.87-.56,1.38-.55,1.51.03Z"/>
      <path class="cls-37" d="M560.75,90.36l-2.23,1.28c.41-1.18,1.55-2.07,2.64-2.73l-.41,1.45h0Z"/>
      <path class="cls-10" d="M523.48,93.2l-1.51-.03c.43-.62,1.08-.88,1.89-1.06l-.38,1.09Z"/>
      <path class="cls-5" d="M495.06,96.83c-.44.46-1.46.6-1.71.05-.43-.95-.25-2.24.13-3.3,2.73-7.69,7.14-14.59,13.08-20.13,3.06-2.84,6.53-4.59,10.84-4.58l-2.38,3.27-15.4,19.99-4.56,4.71h0Z"/>
      <path class="cls-24" d="M454.82,87.5c.88-2.73,2.88-4.52,4.6-6.6,2.66-3.2,8.09-7.05,9.45-5.35.34.42.18,1.24-.34,1.83-3.8,4.17-8.37,7.36-13.72,10.12h0Z"/>
    </g>
  </g>
  <text class="cls-6" transform="translate(86.61 237.3)"><tspan x="0" y="0">M</tspan><tspan class="cls-31" x="161.28" y="0">I</tspan><tspan class="cls-14" x="217.67" y="0">AMI</tspan></text>
</svg>